<svg width="1500" height="1020" xmlns="http://www.w3.org/2000/svg" version="1.1"><g transform="translate(0, 10)"><g class="links" fill="none" stroke-opacity="0.4"><path d="M3,770.7894736842103C126.25,770.7894736842103,126.25,362.3684210526319,249.5,362.3684210526319" stroke-width="10.87719298245614" style="stroke: rgb(191, 105, 105);"></path><path d="M3,833.4210526315786C126.25,833.4210526315786,126.25,979.561403508772,249.5,979.561403508772" stroke-width="10.87719298245614" style="stroke: rgb(191, 108, 105);"></path><path d="M3,979.5614035087713C126.25,979.5614035087713,126.25,298.8596491228075,249.5,298.8596491228075" stroke-width="10.87719298245614" style="stroke: rgb(191, 110, 105);"></path><path d="M3,624.6491228070175C126.25,624.6491228070175,126.25,457.6315789473688,249.5,457.6315789473688" stroke-width="10.87719298245614" style="stroke: rgb(191, 113, 105);"></path><path d="M3,376.9298245614038C126.25,376.9298245614038,126.25,399.56140350877246,249.5,399.56140350877246" stroke-width="21.75438596491228" style="stroke: rgb(191, 116, 105);"></path><path d="M3,582.8947368421052C126.25,582.8947368421052,126.25,687.2807017543869,249.5,687.2807017543869" stroke-width="10.87719298245614" style="stroke: rgb(191, 118, 105);"></path><path d="M3,645.5263157894736C126.25,645.5263157894736,126.25,425.87719298245656,249.5,425.87719298245656" stroke-width="10.87719298245614" style="stroke: rgb(191, 121, 105);"></path><path d="M3,666.4035087719298C126.25,666.4035087719298,126.25,436.75438596491273,249.5,436.75438596491273" stroke-width="10.87719298245614" style="stroke: rgb(191, 124, 105);"></path><path d="M3,403.2456140350879C126.25,403.2456140350879,126.25,666.4035087719308,249.5,666.4035087719308" stroke-width="10.87719298245614" style="stroke: rgb(191, 126, 105);"></path><path d="M3,414.12280701754406C126.25,414.12280701754406,126.25,812.5438596491235,249.5,812.5438596491235" stroke-width="10.87719298245614" style="stroke: rgb(191, 126, 105);"></path><path d="M3,127.4561403508779C126.25,127.4561403508779,126.25,937.80701754386,249.5,937.80701754386" stroke-width="10.87719298245614" style="stroke: rgb(191, 129, 105);"></path><path d="M3,105.70175438596563C126.25,105.70175438596563,126.25,770.7894736842113,249.5,770.7894736842113" stroke-width="10.87719298245614" style="stroke: rgb(191, 129, 105);"></path><path d="M3,116.57894736842177C126.25,116.57894736842177,126.25,896.052631578948,249.5,896.052631578948" stroke-width="10.87719298245614" style="stroke: rgb(191, 129, 105);"></path><path d="M3,687.2807017543859C126.25,687.2807017543859,126.25,749.9122807017552,249.5,749.9122807017552" stroke-width="10.87719298245614" style="stroke: rgb(191, 132, 105);"></path><path d="M3,541.1403508771929C126.25,541.1403508771929,126.25,833.4210526315796,249.5,833.4210526315796" stroke-width="10.87719298245614" style="stroke: rgb(191, 135, 105);"></path><path d="M3,530.2631578947368C126.25,530.2631578947368,126.25,478.5087719298251,249.5,478.5087719298251" stroke-width="10.87719298245614" style="stroke: rgb(191, 135, 105);"></path><path d="M3,287.1052631578946C126.25,287.1052631578946,126.25,854.2982456140357,249.5,854.2982456140357" stroke-width="10.87719298245614" style="stroke: rgb(191, 137, 105);"></path><path d="M3,276.22807017543846C126.25,276.22807017543846,126.25,645.5263157894747,249.5,645.5263157894747" stroke-width="10.87719298245614" style="stroke: rgb(191, 137, 105);"></path><path d="M3,445.8771929824563C126.25,445.8771929824563,126.25,729.0350877192991,249.5,729.0350877192991" stroke-width="10.87719298245614" style="stroke: rgb(191, 140, 105);"></path><path d="M3,435.0000000000001C126.25,435.0000000000001,126.25,708.157894736843,249.5,708.157894736843" stroke-width="10.87719298245614" style="stroke: rgb(191, 140, 105);"></path><path d="M3,562.0175438596489C126.25,562.0175438596489,126.25,875.1754385964919,249.5,875.1754385964919" stroke-width="10.87719298245614" style="stroke: rgb(191, 143, 105);"></path><path d="M3,477.6315789473685C126.25,477.6315789473685,126.25,341.49122807017585,249.5,341.49122807017585" stroke-width="10.87719298245614" style="stroke: rgb(191, 145, 105);"></path><path d="M3,466.75438596491233C126.25,466.75438596491233,126.25,53.070175438596834,249.5,53.070175438596834" stroke-width="10.87719298245614" style="stroke: rgb(191, 145, 105);"></path><path d="M3,345.17543859649146C126.25,345.17543859649146,126.25,325.1754385964917,249.5,325.1754385964917" stroke-width="21.75438596491228" style="stroke: rgb(191, 148, 105);"></path><path d="M3,25.877192982456823C126.25,25.877192982456823,126.25,79.38596491228125,249.5,79.38596491228125" stroke-width="21.75438596491228" style="stroke: rgb(191, 151, 105);"></path><path d="M3,42.19298245614103C126.25,42.19298245614103,126.25,916.929824561404,249.5,916.929824561404" stroke-width="10.87719298245614" style="stroke: rgb(191, 151, 105);"></path><path d="M3,708.157894736842C126.25,708.157894736842,126.25,160.0877192982462,249.5,160.0877192982462" stroke-width="10.87719298245614" style="stroke: rgb(191, 153, 105);"></path><path d="M3,498.50877192982455C126.25,498.50877192982455,126.25,106.5789473684216,249.5,106.5789473684216" stroke-width="10.87719298245614" style="stroke: rgb(191, 156, 105);"></path><path d="M3,509.3859649122807C126.25,509.3859649122807,126.25,149.21052631579008,249.5,149.21052631579008" stroke-width="10.87719298245614" style="stroke: rgb(191, 156, 105);"></path><path d="M3,249.9122807017548C126.25,249.9122807017548,126.25,250.78947368421086,249.5,250.78947368421086" stroke-width="21.75438596491228" style="stroke: rgb(191, 159, 105);"></path><path d="M3,233.59649122807062C126.25,233.59649122807062,126.25,138.33333333333394,249.5,138.33333333333394" stroke-width="10.87719298245614" style="stroke: rgb(191, 159, 105);"></path><path d="M3,170.08771929824624C126.25,170.08771929824624,126.25,234.47368421052667,249.5,234.47368421052667" stroke-width="10.87719298245614" style="stroke: rgb(191, 161, 105);"></path><path d="M3,159.2105263157901C126.25,159.2105263157901,126.25,127.45614035087779,249.5,127.45614035087779" stroke-width="10.87719298245614" style="stroke: rgb(191, 161, 105);"></path><path d="M3,148.33333333333397C126.25,148.33333333333397,126.25,95.70175438596546,249.5,95.70175438596546" stroke-width="10.87719298245614" style="stroke: rgb(191, 161, 105);"></path><path d="M3,729.0350877192981C126.25,729.0350877192981,126.25,213.59649122807065,249.5,213.59649122807065" stroke-width="10.87719298245614" style="stroke: rgb(191, 164, 105);"></path><path d="M3,84.82456140350946C126.25,84.82456140350946,126.25,603.7719298245624,249.5,603.7719298245624" stroke-width="10.87719298245614" style="stroke: rgb(191, 167, 105);"></path><path d="M3,63.07017543859719C126.25,63.07017543859719,126.25,180.96491228070224,249.5,180.96491228070224" stroke-width="10.87719298245614" style="stroke: rgb(191, 167, 105);"></path><path d="M3,73.94736842105333C126.25,73.94736842105333,126.25,499.38596491228145,249.5,499.38596491228145" stroke-width="10.87719298245614" style="stroke: rgb(191, 167, 105);"></path><path d="M3,196.40350877193035C126.25,196.40350877193035,126.25,25.87719298245648,249.5,25.87719298245648" stroke-width="21.75438596491228" style="stroke: rgb(191, 169, 105);"></path><path d="M3,212.71929824561457C126.25,212.71929824561457,126.25,191.84210526315837,249.5,191.84210526315837" stroke-width="10.87719298245614" style="stroke: rgb(191, 169, 105);"></path><path d="M3,603.7719298245614C126.25,603.7719298245614,126.25,520.2631578947377,249.5,520.2631578947377" stroke-width="10.87719298245614" style="stroke: rgb(191, 172, 105);"></path><path d="M3,318.85964912280707C126.25,318.85964912280707,126.25,202.7192982456145,249.5,202.7192982456145" stroke-width="10.87719298245614" style="stroke: rgb(191, 175, 105);"></path><path d="M3,307.9824561403509C126.25,307.9824561403509,126.25,42.19298245614069,249.5,42.19298245614069" stroke-width="10.87719298245614" style="stroke: rgb(191, 175, 105);"></path><path d="M3,749.9122807017542C126.25,749.9122807017542,126.25,624.6491228070186,249.5,624.6491228070186" stroke-width="10.87719298245614" style="stroke: rgb(191, 177, 105);"></path><path d="M3,937.8070175438592C126.25,937.8070175438592,126.25,562.0175438596501,249.5,562.0175438596501" stroke-width="10.87719298245614" style="stroke: rgb(191, 180, 105);"></path><path d="M3,958.6842105263152C126.25,958.6842105263152,126.25,287.98245614035136,249.5,287.98245614035136" stroke-width="10.87719298245614" style="stroke: rgb(191, 183, 105);"></path><path d="M3,791.6666666666664C126.25,791.6666666666664,126.25,373.24561403508807,249.5,373.24561403508807" stroke-width="10.87719298245614" style="stroke: rgb(191, 185, 105);"></path><path d="M3,812.5438596491225C126.25,812.5438596491225,126.25,277.1052631578952,249.5,277.1052631578952" stroke-width="10.87719298245614" style="stroke: rgb(191, 188, 105);"></path><path d="M3,854.2982456140347C126.25,854.2982456140347,126.25,541.1403508771939,249.5,541.1403508771939" stroke-width="10.87719298245614" style="stroke: rgb(191, 191, 105);"></path><path d="M3,875.1754385964908C126.25,875.1754385964908,126.25,582.8947368421063,249.5,582.8947368421063" stroke-width="10.87719298245614" style="stroke: rgb(188, 191, 105);"></path><path d="M3,896.052631578947C126.25,896.052631578947,126.25,958.684210526316,249.5,958.684210526316" stroke-width="10.87719298245614" style="stroke: rgb(185, 191, 105);"></path><path d="M3,916.929824561403C126.25,916.929824561403,126.25,791.6666666666674,249.5,791.6666666666674" stroke-width="10.87719298245614" style="stroke: rgb(183, 191, 105);"></path><path d="M252.5,367.80701754386C375.75,367.80701754386,375.75,97.01754385964963,499,97.01754385964963" stroke-width="21.75438596491228" style="stroke: rgb(180, 191, 105);"></path><path d="M252.5,979.561403508772C375.75,979.561403508772,375.75,242.10526315789528,499,242.10526315789528" stroke-width="10.87719298245614" style="stroke: rgb(177, 191, 105);"></path><path d="M252.5,287.98245614035136C375.75,287.98245614035136,375.75,16.315789473684497,499,16.315789473684497" stroke-width="32.631578947368425" style="stroke: rgb(175, 191, 105);"></path><path d="M252.5,457.6315789473688C375.75,457.6315789473688,375.75,262.9824561403513,499,262.9824561403513" stroke-width="10.87719298245614" style="stroke: rgb(172, 191, 105);"></path><path d="M252.5,399.56140350877246C375.75,399.56140350877246,375.75,118.77192982456191,499,118.77192982456191" stroke-width="21.75438596491228" style="stroke: rgb(169, 191, 105);"></path><path d="M252.5,687.2807017543869C375.75,687.2807017543869,375.75,231.22807017543914,499,231.22807017543914" stroke-width="10.87719298245614" style="stroke: rgb(167, 191, 105);"></path><path d="M252.5,431.3157894736847C375.75,431.3157894736847,375.75,140.52631578947418,499,140.52631578947418" stroke-width="21.75438596491228" style="stroke: rgb(164, 191, 105);"></path><path d="M252.5,666.4035087719308C375.75,666.4035087719308,375.75,294.73684210526363,499,294.73684210526363" stroke-width="10.87719298245614" style="stroke: rgb(161, 191, 105);"></path><path d="M252.5,812.5438596491235C375.75,812.5438596491235,375.75,305.6140350877198,499,305.6140350877198" stroke-width="10.87719298245614" style="stroke: rgb(159, 191, 105);"></path><path d="M252.5,937.80701754386C375.75,937.80701754386,375.75,199.47368421052684,499,199.47368421052684" stroke-width="10.87719298245614" style="stroke: rgb(156, 191, 105);"></path><path d="M252.5,770.7894736842113C375.75,770.7894736842113,375.75,827.5438596491235,499,827.5438596491235" stroke-width="10.87719298245614" style="stroke: rgb(153, 191, 105);"></path><path d="M252.5,896.052631578948C375.75,896.052631578948,375.75,70.70175438596519,499,70.70175438596519" stroke-width="10.87719298245614" style="stroke: rgb(151, 191, 105);"></path><path d="M252.5,749.9122807017552C375.75,749.9122807017552,375.75,764.9122807017552,499,764.9122807017552" stroke-width="10.87719298245614" style="stroke: rgb(148, 191, 105);"></path><path d="M252.5,833.4210526315796C375.75,833.4210526315796,375.75,188.5964912280707,499,188.5964912280707" stroke-width="10.87719298245614" style="stroke: rgb(145, 191, 105);"></path><path d="M252.5,478.5087719298251C375.75,478.5087719298251,375.75,994.561403508772,499,994.561403508772" stroke-width="10.87719298245614" style="stroke: rgb(143, 191, 105);"></path><path d="M252.5,854.2982456140357C375.75,854.2982456140357,375.75,911.052631578948,499,911.052631578948" stroke-width="10.87719298245614" style="stroke: rgb(140, 191, 105);"></path><path d="M252.5,645.5263157894747C375.75,645.5263157894747,375.75,38.07017543859678,499,38.07017543859678" stroke-width="10.87719298245614" style="stroke: rgb(137, 191, 105);"></path><path d="M252.5,729.0350877192991C375.75,729.0350877192991,375.75,48.947368421052914,499,48.947368421052914" stroke-width="10.87719298245614" style="stroke: rgb(135, 191, 105);"></path><path d="M252.5,708.157894736843C375.75,708.157894736843,375.75,156.8421052631584,499,156.8421052631584" stroke-width="10.87719298245614" style="stroke: rgb(132, 191, 105);"></path><path d="M252.5,875.1754385964919C375.75,875.1754385964919,375.75,59.82456140350905,499,59.82456140350905" stroke-width="10.87719298245614" style="stroke: rgb(129, 191, 105);"></path><path d="M252.5,319.7368421052636C375.75,319.7368421052636,375.75,535.263157894738,499,535.263157894738" stroke-width="10.87719298245614" style="stroke: rgb(126, 191, 105);"></path><path d="M252.5,341.4912280701759C375.75,341.4912280701759,375.75,973.6842105263161,499,973.6842105263161" stroke-width="10.87719298245614" style="stroke: rgb(126, 191, 105);"></path><path d="M252.5,330.61403508771974C375.75,330.61403508771974,375.75,785.7894736842113,499,785.7894736842113" stroke-width="10.87719298245614" style="stroke: rgb(126, 191, 105);"></path><path d="M252.5,53.070175438596834C375.75,53.070175438596834,375.75,869.2982456140357,499,869.2982456140357" stroke-width="10.87719298245614" style="stroke: rgb(124, 191, 105);"></path><path d="M252.5,20.43859649122841C375.75,20.43859649122841,375.75,410.0000000000012,499,410.0000000000012" stroke-width="10.87719298245614" style="stroke: rgb(124, 191, 105);"></path><path d="M252.5,42.19298245614069C375.75,42.19298245614069,375.75,618.7719298245624,499,618.7719298245624" stroke-width="10.87719298245614" style="stroke: rgb(124, 191, 105);"></path><path d="M252.5,31.315789473684553C375.75,31.315789473684553,375.75,430.8771929824574,499,430.8771929824574" stroke-width="10.87719298245614" style="stroke: rgb(124, 191, 105);"></path><path d="M252.5,73.94736842105318C375.75,73.94736842105318,375.75,368.2456140350885,499,368.2456140350885" stroke-width="10.87719298245614" style="stroke: rgb(121, 191, 105);"></path><path d="M252.5,95.70175438596546C375.75,95.70175438596546,375.75,744.0350877192991,499,744.0350877192991" stroke-width="10.87719298245614" style="stroke: rgb(121, 191, 105);"></path><path d="M252.5,84.82456140350932C375.75,84.82456140350932,375.75,514.385964912282,499,514.385964912282" stroke-width="10.87719298245614" style="stroke: rgb(121, 191, 105);"></path><path d="M252.5,106.5789473684216C375.75,106.5789473684216,375.75,890.1754385964919,499,890.1754385964919" stroke-width="10.87719298245614" style="stroke: rgb(121, 191, 105);"></path><path d="M252.5,916.929824561404C375.75,916.929824561404,375.75,326.49122807017585,499,326.49122807017585" stroke-width="10.87719298245614" style="stroke: rgb(118, 191, 105);"></path><path d="M252.5,149.21052631579008C375.75,149.21052631579008,375.75,702.2807017543869,499,702.2807017543869" stroke-width="10.87719298245614" style="stroke: rgb(116, 191, 105);"></path><path d="M252.5,160.0877192982462C375.75,160.0877192982462,375.75,723.157894736843,499,723.157894736843" stroke-width="10.87719298245614" style="stroke: rgb(116, 191, 105);"></path><path d="M252.5,127.45614035087779C375.75,127.45614035087779,375.75,347.3684210526322,499,347.3684210526322" stroke-width="10.87719298245614" style="stroke: rgb(116, 191, 105);"></path><path d="M252.5,138.33333333333394C375.75,138.33333333333394,375.75,472.63157894736975,499,472.63157894736975" stroke-width="10.87719298245614" style="stroke: rgb(116, 191, 105);"></path><path d="M252.5,256.2280701754389C375.75,256.2280701754389,375.75,931.9298245614041,499,931.9298245614041" stroke-width="10.87719298245614" style="stroke: rgb(113, 191, 105);"></path><path d="M252.5,234.47368421052667C375.75,234.47368421052667,375.75,389.12280701754486,499,389.12280701754486" stroke-width="10.87719298245614" style="stroke: rgb(113, 191, 105);"></path><path d="M252.5,245.3508771929828C375.75,245.3508771929828,375.75,806.6666666666674,499,806.6666666666674" stroke-width="10.87719298245614" style="stroke: rgb(113, 191, 105);"></path><path d="M252.5,180.96491228070224C375.75,180.96491228070224,375.75,493.50877192982585,499,493.50877192982585" stroke-width="10.87719298245614" style="stroke: rgb(110, 191, 105);"></path><path d="M252.5,213.59649122807065C375.75,213.59649122807065,375.75,952.8070175438602,499,952.8070175438602" stroke-width="10.87719298245614" style="stroke: rgb(110, 191, 105);"></path><path d="M252.5,191.84210526315837C375.75,191.84210526315837,375.75,597.8947368421063,499,597.8947368421063" stroke-width="10.87719298245614" style="stroke: rgb(110, 191, 105);"></path><path d="M252.5,202.7192982456145C375.75,202.7192982456145,375.75,639.6491228070186,499,639.6491228070186" stroke-width="10.87719298245614" style="stroke: rgb(110, 191, 105);"></path><path d="M252.5,603.7719298245624C375.75,603.7719298245624,375.75,556.1403508771941,499,556.1403508771941" stroke-width="10.87719298245614" style="stroke: rgb(108, 191, 105);"></path><path d="M252.5,499.38596491228145C375.75,499.38596491228145,375.75,577.0175438596502,499,577.0175438596502" stroke-width="10.87719298245614" style="stroke: rgb(105, 191, 105);"></path><path d="M252.5,520.2631578947377C375.75,520.2631578947377,375.75,660.5263157894747,499,660.5263157894747" stroke-width="10.87719298245614" style="stroke: rgb(105, 191, 108);"></path><path d="M252.5,624.6491228070186C375.75,624.6491228070186,375.75,681.4035087719308,499,681.4035087719308" stroke-width="10.87719298245614" style="stroke: rgb(105, 191, 110);"></path><path d="M252.5,562.0175438596501C375.75,562.0175438596501,375.75,177.71929824561457,499,177.71929824561457" stroke-width="10.87719298245614" style="stroke: rgb(105, 191, 113);"></path><path d="M252.5,541.1403508771939C375.75,541.1403508771939,375.75,220.350877192983,499,220.350877192983" stroke-width="10.87719298245614" style="stroke: rgb(105, 191, 116);"></path><path d="M252.5,582.8947368421063C375.75,582.8947368421063,375.75,451.75438596491364,499,451.75438596491364" stroke-width="10.87719298245614" style="stroke: rgb(105, 191, 118);"></path><path d="M252.5,958.684210526316C375.75,958.684210526316,375.75,273.85964912280747,499,273.85964912280747" stroke-width="10.87719298245614" style="stroke: rgb(105, 191, 121);"></path><path d="M252.5,791.6666666666674C375.75,791.6666666666674,375.75,848.4210526315796,499,848.4210526315796" stroke-width="10.87719298245614" style="stroke: rgb(105, 191, 124);"></path><path d="M502,113.33333333333385C625.25,113.33333333333385,625.25,255.35087719298278,748.5,255.35087719298278" stroke-width="54.3859649122807" style="stroke: rgb(105, 191, 126);"></path><path d="M502,151.40350877193035C625.25,151.40350877193035,625.25,484.82456140350934,748.5,484.82456140350934" stroke-width="21.75438596491228" style="stroke: rgb(105, 191, 126);"></path><path d="M502,231.22807017543914C625.25,231.22807017543914,625.25,158.33333333333366,748.5,158.33333333333366" stroke-width="32.631578947368425" style="stroke: rgb(105, 191, 129);"></path><path d="M502,38.07017543859678C625.25,38.07017543859678,625.25,83.07017543859689,748.5,83.07017543859689" stroke-width="76.14035087719299" style="stroke: rgb(105, 191, 132);"></path><path d="M502,268.4210526315794C625.25,268.4210526315794,625.25,389.56140350877223,748.5,389.56140350877223" stroke-width="21.75438596491228" style="stroke: rgb(105, 191, 135);"></path><path d="M502,300.17543859649174C625.25,300.17543859649174,625.25,453.0701754385971,748.5,453.0701754385971" stroke-width="21.75438596491228" style="stroke: rgb(105, 191, 137);"></path><path d="M502,188.5964912280707C625.25,188.5964912280707,625.25,319.7368421052635,748.5,319.7368421052635" stroke-width="32.631578947368425" style="stroke: rgb(105, 191, 140);"></path><path d="M502,827.5438596491235C625.25,827.5438596491235,625.25,212.71929824561437,748.5,212.71929824561437" stroke-width="10.87719298245614" style="stroke: rgb(105, 191, 143);"></path><path d="M502,764.9122807017552C625.25,764.9122807017552,625.25,740.7894736842111,748.5,740.7894736842111" stroke-width="10.87719298245614" style="stroke: rgb(105, 191, 145);"></path><path d="M502,994.561403508772C625.25,994.561403508772,625.25,532.0175438596498,748.5,532.0175438596498" stroke-width="10.87719298245614" style="stroke: rgb(105, 191, 148);"></path><path d="M502,911.052631578948C625.25,911.052631578948,625.25,845.1754385964916,748.5,845.1754385964916" stroke-width="10.87719298245614" style="stroke: rgb(105, 191, 151);"></path><path d="M502,535.263157894738C625.25,535.263157894738,625.25,201.84210526315823,748.5,201.84210526315823" stroke-width="10.87719298245614" style="stroke: rgb(105, 191, 153);"></path><path d="M502,869.2982456140357C625.25,869.2982456140357,625.25,426.75438596491284,748.5,426.75438596491284" stroke-width="10.87719298245614" style="stroke: rgb(105, 191, 156);"></path><path d="M502,973.6842105263161C625.25,973.6842105263161,625.25,824.2982456140355,748.5,824.2982456140355" stroke-width="10.87719298245614" style="stroke: rgb(105, 191, 159);"></path><path d="M502,785.7894736842113C625.25,785.7894736842113,625.25,352.36842105263196,748.5,352.36842105263196" stroke-width="10.87719298245614" style="stroke: rgb(105, 191, 161);"></path><path d="M502,368.2456140350885C625.25,368.2456140350885,625.25,678.1578947368428,748.5,678.1578947368428" stroke-width="10.87719298245614" style="stroke: rgb(105, 191, 164);"></path><path d="M502,326.49122807017585C625.25,326.49122807017585,625.25,126.57894736842145,748.5,126.57894736842145" stroke-width="10.87719298245614" style="stroke: rgb(105, 191, 167);"></path><path d="M502,744.0350877192991C625.25,744.0350877192991,625.25,415.8771929824567,748.5,415.8771929824567" stroke-width="10.87719298245614" style="stroke: rgb(105, 191, 169);"></path><path d="M502,702.2807017543869C625.25,702.2807017543869,625.25,949.5614035087717,748.5,949.5614035087717" stroke-width="10.87719298245614" style="stroke: rgb(105, 191, 172);"></path><path d="M502,514.385964912282C625.25,514.385964912282,625.25,886.9298245614038,748.5,886.9298245614038" stroke-width="10.87719298245614" style="stroke: rgb(105, 191, 175);"></path><path d="M502,723.157894736843C625.25,723.157894736843,625.25,615.5263157894744,748.5,615.5263157894744" stroke-width="10.87719298245614" style="stroke: rgb(105, 191, 177);"></path><path d="M502,931.9298245614041C625.25,931.9298245614041,625.25,866.0526315789477,748.5,866.0526315789477" stroke-width="10.87719298245614" style="stroke: rgb(105, 191, 180);"></path><path d="M502,347.3684210526322C625.25,347.3684210526322,625.25,180.08771929824596,748.5,180.08771929824596" stroke-width="10.87719298245614" style="stroke: rgb(105, 191, 183);"></path><path d="M502,389.12280701754486C625.25,389.12280701754486,625.25,782.5438596491233,748.5,782.5438596491233" stroke-width="10.87719298245614" style="stroke: rgb(105, 191, 185);"></path><path d="M502,806.6666666666674C625.25,806.6666666666674,625.25,363.2456140350881,748.5,363.2456140350881" stroke-width="10.87719298245614" style="stroke: rgb(105, 191, 188);"></path><path d="M502,472.63157894736975C625.25,472.63157894736975,625.25,287.9824561403512,748.5,287.9824561403512" stroke-width="10.87719298245614" style="stroke: rgb(105, 191, 191);"></path><path d="M502,890.1754385964919C625.25,890.1754385964919,625.25,907.8070175438598,748.5,907.8070175438598" stroke-width="10.87719298245614" style="stroke: rgb(105, 188, 191);"></path><path d="M502,493.50877192982585C625.25,493.50877192982585,625.25,190.9649122807021,748.5,190.9649122807021" stroke-width="10.87719298245614" style="stroke: rgb(105, 185, 191);"></path><path d="M502,556.1403508771941C625.25,556.1403508771941,625.25,719.912280701755,748.5,719.912280701755" stroke-width="10.87719298245614" style="stroke: rgb(105, 183, 191);"></path><path d="M502,952.8070175438602C625.25,952.8070175438602,625.25,928.6842105263158,748.5,928.6842105263158" stroke-width="10.87719298245614" style="stroke: rgb(105, 180, 191);"></path><path d="M502,577.0175438596502C625.25,577.0175438596502,625.25,699.0350877192989,748.5,699.0350877192989" stroke-width="10.87719298245614" style="stroke: rgb(105, 177, 191);"></path><path d="M502,410.0000000000012C625.25,410.0000000000012,625.25,636.4035087719305,748.5,636.4035087719305" stroke-width="10.87719298245614" style="stroke: rgb(105, 175, 191);"></path><path d="M502,597.8947368421063C625.25,597.8947368421063,625.25,573.7719298245622,748.5,573.7719298245622" stroke-width="10.87719298245614" style="stroke: rgb(105, 172, 191);"></path><path d="M502,618.7719298245624C625.25,618.7719298245624,625.25,511.14035087719344,748.5,511.14035087719344" stroke-width="10.87719298245614" style="stroke: rgb(105, 169, 191);"></path><path d="M502,660.5263157894747C625.25,660.5263157894747,625.25,552.894736842106,748.5,552.894736842106" stroke-width="10.87719298245614" style="stroke: rgb(105, 167, 191);"></path><path d="M502,639.6491228070186C625.25,639.6491228070186,625.25,657.2807017543867,748.5,657.2807017543867" stroke-width="10.87719298245614" style="stroke: rgb(105, 164, 191);"></path><path d="M502,430.8771929824574C625.25,430.8771929824574,625.25,803.4210526315794,748.5,803.4210526315794" stroke-width="10.87719298245614" style="stroke: rgb(105, 161, 191);"></path><path d="M502,681.4035087719308C625.25,681.4035087719308,625.25,594.6491228070183,748.5,594.6491228070183" stroke-width="10.87719298245614" style="stroke: rgb(105, 159, 191);"></path><path d="M502,451.75438596491364C625.25,451.75438596491364,625.25,341.4912280701758,748.5,341.4912280701758" stroke-width="10.87719298245614" style="stroke: rgb(105, 156, 191);"></path><path d="M502,848.4210526315796C625.25,848.4210526315796,625.25,761.6666666666672,748.5,761.6666666666672" stroke-width="10.87719298245614" style="stroke: rgb(105, 153, 191);"></path><path d="M751.5,260.78947368421086C874.75,260.78947368421086,874.75,319.2982456140358,998,319.2982456140358" stroke-width="65.26315789473685" style="stroke: rgb(105, 151, 191);"></path><path d="M751.5,180.08771929824593C874.75,180.08771929824593,874.75,238.59649122807087,998,238.59649122807087" stroke-width="76.14035087719299" style="stroke: rgb(105, 148, 191);"></path><path d="M751.5,88.50877192982496C874.75,88.50877192982496,874.75,103.50877192982502,998,103.50877192982502" stroke-width="87.01754385964912" style="stroke: rgb(105, 145, 191);"></path><path d="M751.5,395.0000000000003C874.75,395.0000000000003,874.75,642.2807017543873,998,642.2807017543873" stroke-width="10.87719298245614" style="stroke: rgb(105, 143, 191);"></path><path d="M751.5,384.1228070175441C874.75,384.1228070175441,874.75,621.4035087719312,998,621.4035087719312" stroke-width="10.87719298245614" style="stroke: rgb(105, 143, 191);"></path><path d="M751.5,484.82456140350934C874.75,484.82456140350934,874.75,448.0701754385972,998,448.0701754385972" stroke-width="21.75438596491228" style="stroke: rgb(105, 140, 191);"></path><path d="M751.5,453.0701754385971C874.75,453.0701754385971,874.75,479.8245614035096,998,479.8245614035096" stroke-width="21.75438596491228" style="stroke: rgb(105, 137, 191);"></path><path d="M751.5,336.05263157894774C874.75,336.05263157894774,874.75,394.5614035087727,998,394.5614035087727" stroke-width="65.26315789473685" style="stroke: rgb(105, 135, 191);"></path><path d="M751.5,740.7894736842111C874.75,740.7894736842111,874.75,913.6842105263167,998,913.6842105263167" stroke-width="10.87719298245614" style="stroke: rgb(105, 132, 191);"></path><path d="M751.5,532.0175438596498C874.75,532.0175438596498,874.75,704.9122807017557,998,704.9122807017557" stroke-width="10.87719298245614" style="stroke: rgb(105, 129, 191);"></path><path d="M751.5,845.1754385964916C874.75,845.1754385964916,874.75,851.0526315789484,998,851.0526315789484" stroke-width="10.87719298245614" style="stroke: rgb(105, 126, 191);"></path><path d="M751.5,421.3157894736848C874.75,421.3157894736848,874.75,511.57894736842195,998,511.57894736842195" stroke-width="21.75438596491228" style="stroke: rgb(105, 124, 191);"></path><path d="M751.5,824.2982456140355C874.75,824.2982456140355,874.75,830.1754385964923,998,830.1754385964923" stroke-width="10.87719298245614" style="stroke: rgb(105, 121, 191);"></path><path d="M751.5,678.1578947368428C874.75,678.1578947368428,874.75,788.4210526315801,998,788.4210526315801" stroke-width="10.87719298245614" style="stroke: rgb(105, 118, 191);"></path><path d="M751.5,949.5614035087717C874.75,949.5614035087717,874.75,725.7894736842118,998,725.7894736842118" stroke-width="10.87719298245614" style="stroke: rgb(105, 116, 191);"></path><path d="M751.5,886.9298245614038C874.75,886.9298245614038,874.75,185.08771929824607,998,185.08771929824607" stroke-width="10.87719298245614" style="stroke: rgb(105, 113, 191);"></path><path d="M751.5,615.5263157894744C874.75,615.5263157894744,874.75,809.2982456140362,998,809.2982456140362" stroke-width="10.87719298245614" style="stroke: rgb(105, 110, 191);"></path><path d="M751.5,866.0526315789477C874.75,866.0526315789477,874.75,537.8947368421061,998,537.8947368421061" stroke-width="10.87719298245614" style="stroke: rgb(105, 108, 191);"></path><path d="M751.5,782.5438596491233C874.75,782.5438596491233,874.75,934.5614035087726,998,934.5614035087726" stroke-width="10.87719298245614" style="stroke: rgb(105, 105, 191);"></path><path d="M751.5,907.8070175438598C874.75,907.8070175438598,874.75,579.6491228070189,998,579.6491228070189" stroke-width="10.87719298245614" style="stroke: rgb(108, 105, 191);"></path><path d="M751.5,719.912280701755C874.75,719.912280701755,874.75,174.21052631578993,998,174.21052631578993" stroke-width="10.87719298245614" style="stroke: rgb(110, 105, 191);"></path><path d="M751.5,928.6842105263158C874.75,928.6842105263158,874.75,600.5263157894751,998,600.5263157894751" stroke-width="10.87719298245614" style="stroke: rgb(113, 105, 191);"></path><path d="M751.5,699.0350877192989C874.75,699.0350877192989,874.75,163.3333333333338,998,163.3333333333338" stroke-width="10.87719298245614" style="stroke: rgb(116, 105, 191);"></path><path d="M751.5,636.4035087719305C874.75,636.4035087719305,874.75,152.45614035087766,998,152.45614035087766" stroke-width="10.87719298245614" style="stroke: rgb(118, 105, 191);"></path><path d="M751.5,573.7719298245622C874.75,573.7719298245622,874.75,684.0350877192996,998,684.0350877192996" stroke-width="10.87719298245614" style="stroke: rgb(121, 105, 191);"></path><path d="M751.5,511.14035087719344C874.75,511.14035087719344,874.75,746.6666666666679,998,746.6666666666679" stroke-width="10.87719298245614" style="stroke: rgb(124, 105, 191);"></path><path d="M751.5,552.894736842106C874.75,552.894736842106,874.75,871.9298245614045,998,871.9298245614045" stroke-width="10.87719298245614" style="stroke: rgb(126, 105, 191);"></path><path d="M751.5,657.2807017543867C874.75,657.2807017543867,874.75,767.543859649124,998,767.543859649124" stroke-width="10.87719298245614" style="stroke: rgb(129, 105, 191);"></path><path d="M751.5,803.4210526315794C874.75,803.4210526315794,874.75,892.8070175438606,998,892.8070175438606" stroke-width="10.87719298245614" style="stroke: rgb(132, 105, 191);"></path><path d="M751.5,594.6491228070183C874.75,594.6491228070183,874.75,663.1578947368434,998,663.1578947368434" stroke-width="10.87719298245614" style="stroke: rgb(135, 105, 191);"></path><path d="M751.5,761.6666666666672C874.75,761.6666666666672,874.75,558.7719298245627,998,558.7719298245627" stroke-width="10.87719298245614" style="stroke: rgb(137, 105, 191);"></path><path d="M1001,319.2982456140358C1124.25,319.2982456140358,1124.25,453.07017543859706,1247.5,453.07017543859706" stroke-width="65.26315789473685" style="stroke: rgb(140, 105, 191);"></path><path d="M1001,238.59649122807087C1124.25,238.59649122807087,1124.25,372.36842105263213,1247.5,372.36842105263213" stroke-width="76.14035087719299" style="stroke: rgb(143, 105, 191);"></path><path d="M1001,125.2631578947373C1124.25,125.2631578947373,1124.25,140.2631578947373,1247.5,140.2631578947373" stroke-width="130.5263157894737" style="stroke: rgb(145, 105, 191);"></path><path d="M1001,642.2807017543873C1124.25,642.2807017543873,1124.25,627.2807017543862,1247.5,627.2807017543862" stroke-width="10.87719298245614" style="stroke: rgb(148, 105, 191);"></path><path d="M1001,448.0701754385972C1124.25,448.0701754385972,1124.25,538.3333333333338,1247.5,538.3333333333338" stroke-width="21.75438596491228" style="stroke: rgb(151, 105, 191);"></path><path d="M1001,479.8245614035096C1124.25,479.8245614035096,1124.25,506.57894736842167,1247.5,506.57894736842167" stroke-width="21.75438596491228" style="stroke: rgb(153, 105, 191);"></path><path d="M1001,394.5614035087727C1124.25,394.5614035087727,1124.25,269.9122807017548,1247.5,269.9122807017548" stroke-width="65.26315789473685" style="stroke: rgb(156, 105, 191);"></path><path d="M1001,913.6842105263167C1124.25,913.6842105263167,1124.25,669.0350877192984,1247.5,669.0350877192984" stroke-width="10.87719298245614" style="stroke: rgb(159, 105, 191);"></path><path d="M1001,704.9122807017557C1124.25,704.9122807017557,1124.25,564.6491228070178,1247.5,564.6491228070178" stroke-width="10.87719298245614" style="stroke: rgb(161, 105, 191);"></path><path d="M1001,851.0526315789484C1124.25,851.0526315789484,1124.25,752.5438596491229,1247.5,752.5438596491229" stroke-width="10.87719298245614" style="stroke: rgb(164, 105, 191);"></path><path d="M1001,511.57894736842195C1124.25,511.57894736842195,1124.25,313.4210526315794,1247.5,313.4210526315794" stroke-width="21.75438596491228" style="stroke: rgb(167, 105, 191);"></path><path d="M1001,830.1754385964923C1124.25,830.1754385964923,1124.25,710.7894736842106,1247.5,710.7894736842106" stroke-width="10.87719298245614" style="stroke: rgb(169, 105, 191);"></path><path d="M1001,788.4210526315801C1124.25,788.4210526315801,1124.25,773.421052631579,1247.5,773.421052631579" stroke-width="10.87719298245614" style="stroke: rgb(172, 105, 191);"></path><path d="M1001,725.7894736842118C1124.25,725.7894736842118,1124.25,689.9122807017545,1247.5,689.9122807017545" stroke-width="10.87719298245614" style="stroke: rgb(175, 105, 191);"></path><path d="M1001,809.2982456140362C1124.25,809.2982456140362,1124.25,731.6666666666667,1247.5,731.6666666666667" stroke-width="10.87719298245614" style="stroke: rgb(177, 105, 191);"></path><path d="M1001,537.8947368421061C1124.25,537.8947368421061,1124.25,836.0526315789473,1247.5,836.0526315789473" stroke-width="10.87719298245614" style="stroke: rgb(180, 105, 191);"></path><path d="M1001,934.5614035087726C1124.25,934.5614035087726,1124.25,856.9298245614034,1247.5,856.9298245614034" stroke-width="10.87719298245614" style="stroke: rgb(183, 105, 191);"></path><path d="M1001,579.6491228070189C1124.25,579.6491228070189,1124.25,585.526315789474,1247.5,585.526315789474" stroke-width="10.87719298245614" style="stroke: rgb(185, 105, 191);"></path><path d="M1001,600.5263157894751C1124.25,600.5263157894751,1124.25,877.8070175438595,1247.5,877.8070175438595" stroke-width="10.87719298245614" style="stroke: rgb(188, 105, 191);"></path><path d="M1001,684.0350877192996C1124.25,684.0350877192996,1124.25,606.4035087719301,1247.5,606.4035087719301" stroke-width="10.87719298245614" style="stroke: rgb(191, 105, 191);"></path><path d="M1001,746.6666666666679C1124.25,746.6666666666679,1124.25,794.2982456140351,1247.5,794.2982456140351" stroke-width="10.87719298245614" style="stroke: rgb(191, 105, 188);"></path><path d="M1001,871.9298245614045C1124.25,871.9298245614045,1124.25,210.96491228070224,1247.5,210.96491228070224" stroke-width="10.87719298245614" style="stroke: rgb(191, 105, 185);"></path><path d="M1001,767.543859649124C1124.25,767.543859649124,1124.25,815.1754385964912,1247.5,815.1754385964912" stroke-width="10.87719298245614" style="stroke: rgb(191, 105, 183);"></path><path d="M1001,892.8070175438606C1124.25,892.8070175438606,1124.25,221.84210526315837,1247.5,221.84210526315837" stroke-width="10.87719298245614" style="stroke: rgb(191, 105, 180);"></path><path d="M1001,663.1578947368434C1124.25,663.1578947368434,1124.25,648.1578947368423,1247.5,648.1578947368423" stroke-width="10.87719298245614" style="stroke: rgb(191, 105, 177);"></path><path d="M1001,621.4035087719312C1124.25,621.4035087719312,1124.25,919.5614035087716,1247.5,919.5614035087716" stroke-width="10.87719298245614" style="stroke: rgb(191, 105, 175);"></path><path d="M1001,558.7719298245627C1124.25,558.7719298245627,1124.25,898.6842105263156,1247.5,898.6842105263156" stroke-width="10.87719298245614" style="stroke: rgb(191, 105, 172);"></path><path d="M1250.5,453.07017543859706C1373.75,453.07017543859706,1373.75,432.1929824561404,1497,432.1929824561404" stroke-width="65.26315789473685" style="stroke: rgb(191, 105, 169);"></path><path d="M1250.5,372.36842105263213C1373.75,372.36842105263213,1373.75,351.49122807017545,1497,351.49122807017545" stroke-width="76.14035087719299" style="stroke: rgb(191, 105, 167);"></path><path d="M1250.5,151.14035087719344C1373.75,151.14035087719344,1373.75,141.1403508771931,1497,141.1403508771931" stroke-width="152.28070175438597" style="stroke: rgb(191, 105, 164);"></path><path d="M1250.5,627.2807017543862C1373.75,627.2807017543862,1373.75,574.6491228070179,1497,574.6491228070179" stroke-width="10.87719298245614" style="stroke: rgb(191, 105, 161);"></path><path d="M1250.5,538.3333333333338C1373.75,538.3333333333338,1373.75,485.701754385965,1497,485.701754385965" stroke-width="21.75438596491228" style="stroke: rgb(191, 105, 159);"></path><path d="M1250.5,501.14035087719355C1373.75,501.14035087719355,1373.75,512.0175438596492,1497,512.0175438596492" stroke-width="10.87719298245614" style="stroke: rgb(191, 105, 156);"></path><path d="M1250.5,512.0175438596498C1373.75,512.0175438596498,1373.75,595.5263157894741,1497,595.5263157894741" stroke-width="10.87719298245614" style="stroke: rgb(191, 105, 156);"></path><path d="M1250.5,275.3508771929829C1373.75,275.3508771929829,1373.75,265.35087719298247,1497,265.35087719298247" stroke-width="76.14035087719299" style="stroke: rgb(191, 105, 153);"></path><path d="M1250.5,318.85964912280747C1373.75,318.85964912280747,1373.75,825.1754385964914,1497,825.1754385964914" stroke-width="10.87719298245614" style="stroke: rgb(191, 105, 153);"></path><path d="M1250.5,669.0350877192984C1373.75,669.0350877192984,1373.75,741.666666666667,1497,741.666666666667" stroke-width="10.87719298245614" style="stroke: rgb(191, 105, 151);"></path><path d="M1250.5,564.6491228070178C1373.75,564.6491228070178,1373.75,532.8947368421054,1497,532.8947368421054" stroke-width="10.87719298245614" style="stroke: rgb(191, 105, 148);"></path><path d="M1250.5,752.5438596491229C1373.75,752.5438596491229,1373.75,616.4035087719303,1497,616.4035087719303" stroke-width="10.87719298245614" style="stroke: rgb(191, 105, 145);"></path><path d="M1250.5,710.7894736842106C1373.75,710.7894736842106,1373.75,929.561403508772,1497,929.561403508772" stroke-width="10.87719298245614" style="stroke: rgb(191, 105, 143);"></path><path d="M1250.5,773.421052631579C1373.75,773.421052631579,1373.75,866.9298245614036,1497,866.9298245614036" stroke-width="10.87719298245614" style="stroke: rgb(191, 105, 140);"></path><path d="M1250.5,689.9122807017545C1373.75,689.9122807017545,1373.75,804.2982456140353,1497,804.2982456140353" stroke-width="10.87719298245614" style="stroke: rgb(191, 105, 137);"></path><path d="M1250.5,731.6666666666667C1373.75,731.6666666666667,1373.75,553.7719298245617,1497,553.7719298245617" stroke-width="10.87719298245614" style="stroke: rgb(191, 105, 135);"></path><path d="M1250.5,836.0526315789473C1373.75,836.0526315789473,1373.75,637.2807017543864,1497,637.2807017543864" stroke-width="10.87719298245614" style="stroke: rgb(191, 105, 132);"></path><path d="M1250.5,856.9298245614034C1373.75,856.9298245614034,1373.75,658.1578947368425,1497,658.1578947368425" stroke-width="10.87719298245614" style="stroke: rgb(191, 105, 129);"></path><path d="M1250.5,585.526315789474C1373.75,585.526315789474,1373.75,887.8070175438597,1497,887.8070175438597" stroke-width="10.87719298245614" style="stroke: rgb(191, 105, 126);"></path><path d="M1250.5,877.8070175438595C1373.75,877.8070175438595,1373.75,908.6842105263158,1497,908.6842105263158" stroke-width="10.87719298245614" style="stroke: rgb(191, 105, 124);"></path><path d="M1250.5,606.4035087719301C1373.75,606.4035087719301,1373.75,762.5438596491231,1497,762.5438596491231" stroke-width="10.87719298245614" style="stroke: rgb(191, 105, 121);"></path><path d="M1250.5,794.2982456140351C1373.75,794.2982456140351,1373.75,783.4210526315792,1497,783.4210526315792" stroke-width="10.87719298245614" style="stroke: rgb(191, 105, 118);"></path><path d="M1250.5,815.1754385964912C1373.75,815.1754385964912,1373.75,846.0526315789475,1497,846.0526315789475" stroke-width="10.87719298245614" style="stroke: rgb(191, 105, 116);"></path><path d="M1250.5,648.1578947368423C1373.75,648.1578947368423,1373.75,720.7894736842109,1497,720.7894736842109" stroke-width="10.87719298245614" style="stroke: rgb(191, 105, 113);"></path><path d="M1250.5,919.5614035087716C1373.75,919.5614035087716,1373.75,679.0350877192986,1497,679.0350877192986" stroke-width="10.87719298245614" style="stroke: rgb(191, 105, 110);"></path><path d="M1250.5,898.6842105263156C1373.75,898.6842105263156,1373.75,699.9122807017548,1497,699.9122807017548" stroke-width="10.87719298245614" style="stroke: rgb(191, 105, 108);"></path></g><g class="nodes" font-family="Arial, Helvetica" font-size="10"><g><rect x="0" y="619.2105263157895" height="10.877192982456108" width="3" fill="#000"></rect><text x="9" y="624.6491228070175" dy="0.35em" text-anchor="start">ament/ament_tools</text></g><g><rect x="0" y="366.0526315789476" height="21.754385964912217" width="3" fill="#000"></rect><text x="9" y="376.92982456140373" dy="0.35em" text-anchor="start">aws/aws-cli</text></g><g><rect x="0" y="577.4561403508771" height="10.877192982456222" width="3" fill="#000"></rect><text x="9" y="582.8947368421052" dy="0.35em" text-anchor="start">balderdashy/waterline</text></g><g><rect x="0" y="640.0877192982456" height="10.877192982456108" width="3" fill="#000"></rect><text x="9" y="645.5263157894736" dy="0.35em" text-anchor="start">chef/chef</text></g><g><rect x="0" y="660.9649122807017" height="10.877192982456108" width="3" fill="#000"></rect><text x="9" y="666.4035087719298" dy="0.35em" text-anchor="start">chef/chef-provisioning-docker</text></g><g><rect x="0" y="397.80701754385984" height="21.754385964912217" width="3" fill="#000"></rect><text x="9" y="408.68421052631595" dy="0.35em" text-anchor="start">form1393</text></g><g><rect x="0" y="100.26315789473756" height="32.631578947368325" width="3" fill="#000"></rect><text x="9" y="116.57894736842172" dy="0.35em" text-anchor="start">form1400</text></g><g><rect x="0" y="681.8421052631578" height="10.877192982456108" width="3" fill="#000"></rect><text x="9" y="687.2807017543859" dy="0.35em" text-anchor="start">form1443</text></g><g><rect x="0" y="524.8245614035087" height="21.75438596491216" width="3" fill="#000"></rect><text x="9" y="535.7017543859648" dy="0.35em" text-anchor="start">form1460</text></g><g><rect x="0" y="270.7894736842104" height="21.754385964912444" width="3" fill="#000"></rect><text x="9" y="281.66666666666663" dy="0.35em" text-anchor="start">form1466</text></g><g><rect x="0" y="429.56140350877206" height="21.754385964912217" width="3" fill="#000"></rect><text x="9" y="440.43859649122817" dy="0.35em" text-anchor="start">form1515</text></g><g><rect x="0" y="556.5789473684208" height="10.877192982456279" width="3" fill="#000"></rect><text x="9" y="562.017543859649" dy="0.35em" text-anchor="start">form1594</text></g><g><rect x="0" y="461.3157894736843" height="21.754385964912217" width="3" fill="#000"></rect><text x="9" y="472.1929824561404" dy="0.35em" text-anchor="start">form2976</text></g><g><rect x="0" y="334.2982456140353" height="21.75438596491233" width="3" fill="#000"></rect><text x="9" y="345.17543859649146" dy="0.35em" text-anchor="start">form3014</text></g><g><rect x="0" y="15.000000000000682" height="32.63157894736844" width="3" fill="#000"></rect><text x="9" y="31.3157894736849" dy="0.35em" text-anchor="start">form3032</text></g><g><rect x="0" y="702.7192982456139" height="10.877192982456108" width="3" fill="#000"></rect><text x="9" y="708.157894736842" dy="0.35em" text-anchor="start">form3106</text></g><g><rect x="0" y="493.0701754385965" height="21.754385964912217" width="3" fill="#000"></rect><text x="9" y="503.9473684210526" dy="0.35em" text-anchor="start">form3168</text></g><g><rect x="0" y="228.15789473684254" height="32.63157894736787" width="3" fill="#000"></rect><text x="9" y="244.47368421052647" dy="0.35em" text-anchor="start">form3472</text></g><g><rect x="0" y="142.89473684210589" height="32.631578947368325" width="3" fill="#000"></rect><text x="9" y="159.21052631579005" dy="0.35em" text-anchor="start">form3680</text></g><g><rect x="0" y="723.59649122807" height="10.877192982456108" width="3" fill="#000"></rect><text x="9" y="729.0350877192981" dy="0.35em" text-anchor="start">form3714</text></g><g><rect x="0" y="57.63157894736912" height="32.63157894736844" width="3" fill="#000"></rect><text x="9" y="73.94736842105334" dy="0.35em" text-anchor="start">form5297</text></g><g><rect x="0" y="185.5263157894742" height="32.631578947368325" width="3" fill="#000"></rect><text x="9" y="201.84210526315837" dy="0.35em" text-anchor="start">form5477</text></g><g><rect x="0" y="598.3333333333334" height="10.877192982456123" width="3" fill="#000"></rect><text x="9" y="603.7719298245614" dy="0.35em" text-anchor="start">form5870</text></g><g><rect x="0" y="302.54385964912285" height="21.754385964912444" width="3" fill="#000"></rect><text x="9" y="313.4210526315791" dy="0.35em" text-anchor="start">form5888</text></g><g><rect x="0" y="744.4736842105261" height="10.877192982456108" width="3" fill="#000"></rect><text x="9" y="749.9122807017542" dy="0.35em" text-anchor="start">genome/civic-client</text></g><g><rect x="0" y="765.3508771929822" height="10.877192982456108" width="3" fill="#000"></rect><text x="9" y="770.7894736842103" dy="0.35em" text-anchor="start">Homebrew/homebrew</text></g><g><rect x="0" y="932.3684210526311" height="10.877192982456052" width="3" fill="#000"></rect><text x="9" y="937.8070175438592" dy="0.35em" text-anchor="start">ipfs/infrastructure</text></g><g><rect x="0" y="953.2456140350871" height="10.877192982456052" width="3" fill="#000"></rect><text x="9" y="958.6842105263152" dy="0.35em" text-anchor="start">ipython/ipython</text></g><g><rect x="0" y="786.2280701754383" height="10.877192982456108" width="3" fill="#000"></rect><text x="9" y="791.6666666666664" dy="0.35em" text-anchor="start">meanjs/mean</text></g><g><rect x="0" y="807.1052631578945" height="10.877192982456108" width="3" fill="#000"></rect><text x="9" y="812.5438596491225" dy="0.35em" text-anchor="start">mila-udem/blocks-extras</text></g><g><rect x="0" y="827.9824561403506" height="10.877192982456108" width="3" fill="#000"></rect><text x="9" y="833.4210526315786" dy="0.35em" text-anchor="start">NativeScript/cross-platform-modules</text></g><g><rect x="0" y="848.8596491228067" height="10.877192982456108" width="3" fill="#000"></rect><text x="9" y="854.2982456140347" dy="0.35em" text-anchor="start">odoo/odoo</text></g><g><rect x="0" y="869.7368421052628" height="10.877192982456108" width="3" fill="#000"></rect><text x="9" y="875.1754385964908" dy="0.35em" text-anchor="start">ros/ros_comm</text></g><g><rect x="0" y="890.6140350877189" height="10.877192982456108" width="3" fill="#000"></rect><text x="9" y="896.052631578947" dy="0.35em" text-anchor="start">ros2/rclcpp</text></g><g><rect x="0" y="974.1228070175432" height="10.877192982456052" width="3" fill="#000"></rect><text x="9" y="979.5614035087713" dy="0.35em" text-anchor="start">SciTools/iris</text></g><g><rect x="0" y="911.491228070175" height="10.877192982456108" width="3" fill="#000"></rect><text x="9" y="916.929824561403" dy="0.35em" text-anchor="start">snarfed/bridgy</text></g><g><rect x="249.5" y="452.1929824561407" height="10.877192982456336" width="3" fill="#000"></rect><text x="243.5" y="457.6315789473689" dy="0.35em" text-anchor="end">ament/ament_package</text></g><g><rect x="249.5" y="271.66666666666714" height="32.631578947368354" width="3" fill="#000"></rect><text x="243.5" y="287.9824561403513" dy="0.35em" text-anchor="end">astropy/astropy</text></g><g><rect x="249.5" y="890.6140350877199" height="10.877192982455995" width="3" fill="#000"></rect><text x="243.5" y="896.052631578948" dy="0.35em" text-anchor="end">BD2KGenomics/toil-new</text></g><g><rect x="249.5" y="356.92982456140385" height="21.754385964912444" width="3" fill="#000"></rect><text x="243.5" y="367.80701754386007" dy="0.35em" text-anchor="end">docker/docker</text></g><g><rect x="249.5" y="314.2982456140355" height="32.631578947368325" width="3" fill="#000"></rect><text x="243.5" y="330.6140350877197" dy="0.35em" text-anchor="end">form3027</text></g><g><rect x="249.5" y="911.4912280701759" height="10.877192982455995" width="3" fill="#000"></rect><text x="243.5" y="916.9298245614038" dy="0.35em" text-anchor="end">form3039</text></g><g><rect x="249.5" y="68.50877192982512" height="43.508771929824604" width="3" fill="#000"></rect><text x="243.5" y="90.26315789473742" dy="0.35em" text-anchor="end">form3071</text></g><g><rect x="249.5" y="122.01754385964972" height="43.508771929824434" width="3" fill="#000"></rect><text x="243.5" y="143.77192982456194" dy="0.35em" text-anchor="end">form3107</text></g><g><rect x="249.5" y="229.0350877192986" height="32.63157894736855" width="3" fill="#000"></rect><text x="243.5" y="245.35087719298286" dy="0.35em" text-anchor="end">form3293</text></g><g><rect x="249.5" y="175.52631578947415" height="43.508771929824434" width="3" fill="#000"></rect><text x="243.5" y="197.28070175438637" dy="0.35em" text-anchor="end">form3715</text></g><g><rect x="249.5" y="598.3333333333344" height="10.877192982456108" width="3" fill="#000"></rect><text x="243.5" y="603.7719298245624" dy="0.35em" text-anchor="end">form5139</text></g><g><rect x="249.5" y="493.9473684210534" height="10.877192982456222" width="3" fill="#000"></rect><text x="243.5" y="499.3859649122815" dy="0.35em" text-anchor="end">form5298</text></g><g><rect x="249.5" y="15.000000000000341" height="43.508771929824775" width="3" fill="#000"></rect><text x="243.5" y="36.75438596491273" dy="0.35em" text-anchor="end">form5658</text></g><g><rect x="249.5" y="514.8245614035096" height="10.877192982456222" width="3" fill="#000"></rect><text x="243.5" y="520.2631578947378" dy="0.35em" text-anchor="end">form5871</text></g><g><rect x="249.5" y="473.07017543859706" height="10.877192982456336" width="3" fill="#000"></rect><text x="243.5" y="478.50877192982523" dy="0.35em" text-anchor="end">geneontology/noctua</text></g><g><rect x="249.5" y="619.2105263157905" height="10.877192982456108" width="3" fill="#000"></rect><text x="243.5" y="624.6491228070186" dy="0.35em" text-anchor="end">genome/civic-server</text></g><g><rect x="249.5" y="932.3684210526319" height="10.877192982455995" width="3" fill="#000"></rect><text x="243.5" y="937.80701754386" dy="0.35em" text-anchor="end">GoogleCloudPlatform/gcloud-node</text></g><g><rect x="249.5" y="640.0877192982466" height="10.877192982456108" width="3" fill="#000"></rect><text x="243.5" y="645.5263157894747" dy="0.35em" text-anchor="end">Graylog2/graylog2-web-interface</text></g><g><rect x="249.5" y="660.9649122807027" height="10.877192982456108" width="3" fill="#000"></rect><text x="243.5" y="666.4035087719308" dy="0.35em" text-anchor="end">Haggle1996/RevolutionPack</text></g><g><rect x="249.5" y="556.5789473684221" height="10.877192982456165" width="3" fill="#000"></rect><text x="243.5" y="562.0175438596501" dy="0.35em" text-anchor="end">ipfs/go-ipfs</text></g><g><rect x="249.5" y="869.7368421052638" height="10.87719298245608" width="3" fill="#000"></rect><text x="243.5" y="875.1754385964919" dy="0.35em" text-anchor="end">juju/charm-tools</text></g><g><rect x="249.5" y="388.6842105263163" height="21.754385964912217" width="3" fill="#000"></rect><text x="243.5" y="399.5614035087724" dy="0.35em" text-anchor="end">letsencrypt/letsencrypt</text></g><g><rect x="249.5" y="681.8421052631588" height="10.877192982456108" width="3" fill="#000"></rect><text x="243.5" y="687.2807017543869" dy="0.35em" text-anchor="end">Microsoft/vscode</text></g><g><rect x="249.5" y="535.7017543859658" height="10.877192982456222" width="3" fill="#000"></rect><text x="243.5" y="541.1403508771939" dy="0.35em" text-anchor="end">mitsuhiko/flask</text></g><g><rect x="249.5" y="974.1228070175439" height="10.877192982455881" width="3" fill="#000"></rect><text x="243.5" y="979.5614035087718" dy="0.35em" text-anchor="end">NativeScript/NativeScript</text></g><g><rect x="249.5" y="702.7192982456149" height="10.877192982456108" width="3" fill="#000"></rect><text x="243.5" y="708.157894736843" dy="0.35em" text-anchor="end">opscode/supermarket</text></g><g><rect x="249.5" y="723.596491228071" height="10.877192982456108" width="3" fill="#000"></rect><text x="243.5" y="729.0350877192991" dy="0.35em" text-anchor="end">pandegroup/openmm</text></g><g><rect x="249.5" y="744.4736842105272" height="10.877192982456108" width="3" fill="#000"></rect><text x="243.5" y="749.9122807017552" dy="0.35em" text-anchor="end">quintel/etmoses</text></g><g><rect x="249.5" y="765.3508771929833" height="10.877192982456108" width="3" fill="#000"></rect><text x="243.5" y="770.7894736842113" dy="0.35em" text-anchor="end">ramda/ramda</text></g><g><rect x="249.5" y="577.4561403508783" height="10.877192982456162" width="3" fill="#000"></rect><text x="243.5" y="582.8947368421063" dy="0.35em" text-anchor="end">ros/catkin</text></g><g><rect x="249.5" y="953.2456140350879" height="10.877192982455995" width="3" fill="#000"></rect><text x="243.5" y="958.6842105263158" dy="0.35em" text-anchor="end">ros2/system_tests</text></g><g><rect x="249.5" y="420.4385964912285" height="21.754385964912217" width="3" fill="#000"></rect><text x="243.5" y="431.3157894736846" dy="0.35em" text-anchor="end">saltstack/salt</text></g><g><rect x="249.5" y="786.2280701754394" height="10.877192982456108" width="3" fill="#000"></rect><text x="243.5" y="791.6666666666674" dy="0.35em" text-anchor="end">snarfed/bridgy</text></g><g><rect x="249.5" y="807.1052631578955" height="10.877192982456108" width="3" fill="#000"></rect><text x="243.5" y="812.5438596491235" dy="0.35em" text-anchor="end">SpongePowered/SpongeForge</text></g><g><rect x="249.5" y="827.9824561403516" height="10.877192982456108" width="3" fill="#000"></rect><text x="243.5" y="833.4210526315796" dy="0.35em" text-anchor="end">tensorflow/tensorflow</text></g><g><rect x="249.5" y="848.8596491228077" height="10.877192982456108" width="3" fill="#000"></rect><text x="243.5" y="854.2982456140357" dy="0.35em" text-anchor="end">zaproxy/zaproxy</text></g><g><rect x="499" y="467.1929824561417" height="10.877192982456108" width="3" fill="#000"></rect><text x="493" y="472.63157894736975" dy="0.35em" text-anchor="end">amalgam8/registry</text></g><g><rect x="499" y="488.0701754385978" height="10.877192982456108" width="3" fill="#000"></rect><text x="493" y="493.50877192982585" dy="0.35em" text-anchor="end">aurelia/templating</text></g><g><rect x="499" y="172.28070175438648" height="32.63157894736844" width="3" fill="#000"></rect><text x="493" y="188.5964912280707" dy="0.35em" text-anchor="end">bazelbuild/bazel</text></g><g><rect x="499" y="289.2982456140356" height="21.754385964912217" width="3" fill="#000"></rect><text x="493" y="300.1754385964917" dy="0.35em" text-anchor="end">Chisel-Team/Chisel</text></g><g><rect x="499" y="508.9473684210539" height="10.877192982456108" width="3" fill="#000"></rect><text x="493" y="514.3859649122819" dy="0.35em" text-anchor="end">ckan/ckan</text></g><g><rect x="499" y="86.1403508771935" height="76.14035087719299" width="3" fill="#000"></rect><text x="493" y="124.21052631578999" dy="0.35em" text-anchor="end">docker/docker</text></g><g><rect x="499" y="529.82456140351" height="10.877192982456108" width="3" fill="#000"></rect><text x="493" y="535.263157894738" dy="0.35em" text-anchor="end">driftyco/ionic</text></g><g><rect x="499" y="550.7017543859661" height="10.877192982456108" width="3" fill="#000"></rect><text x="493" y="556.1403508771941" dy="0.35em" text-anchor="end">form5140</text></g><g><rect x="499" y="947.3684210526321" height="10.877192982455881" width="3" fill="#000"></rect><text x="493" y="952.8070175438601" dy="0.35em" text-anchor="end">form5221</text></g><g><rect x="499" y="571.5789473684222" height="10.877192982456108" width="3" fill="#000"></rect><text x="493" y="577.0175438596502" dy="0.35em" text-anchor="end">form5299</text></g><g><rect x="499" y="404.56140350877314" height="10.877192982456222" width="3" fill="#000"></rect><text x="493" y="410.00000000000125" dy="0.35em" text-anchor="end">form5479</text></g><g><rect x="499" y="592.4561403508783" height="10.877192982456108" width="3" fill="#000"></rect><text x="493" y="597.8947368421063" dy="0.35em" text-anchor="end">form5539</text></g><g><rect x="499" y="613.3333333333344" height="10.877192982456108" width="3" fill="#000"></rect><text x="493" y="618.7719298245624" dy="0.35em" text-anchor="end">form5659</text></g><g><rect x="499" y="634.2105263157905" height="10.877192982456108" width="3" fill="#000"></rect><text x="493" y="639.6491228070186" dy="0.35em" text-anchor="end">form5695</text></g><g><rect x="499" y="655.0877192982466" height="10.877192982456108" width="3" fill="#000"></rect><text x="493" y="660.5263157894747" dy="0.35em" text-anchor="end">form5872</text></g><g><rect x="499" y="425.43859649122936" height="10.877192982456222" width="3" fill="#000"></rect><text x="493" y="430.8771929824575" dy="0.35em" text-anchor="end">form5890</text></g><g><rect x="499" y="321.0526315789478" height="10.877192982456336" width="3" fill="#000"></rect><text x="493" y="326.49122807017596" dy="0.35em" text-anchor="end">galaxyproject/galaxy</text></g><g><rect x="499" y="989.1228070175439" height="10.877192982455824" width="3" fill="#000"></rect><text x="493" y="994.5614035087718" dy="0.35em" text-anchor="end">geneontology/amigo</text></g><g><rect x="499" y="675.9649122807027" height="10.877192982456108" width="3" fill="#000"></rect><text x="493" y="681.4035087719308" dy="0.35em" text-anchor="end">genome/civic-client</text></g><g><rect x="499" y="341.92982456140413" height="10.877192982456336" width="3" fill="#000"></rect><text x="493" y="347.3684210526323" dy="0.35em" text-anchor="end">geoadmin/mf-geoadmin3</text></g><g><rect x="499" y="696.8421052631588" height="10.877192982456108" width="3" fill="#000"></rect><text x="493" y="702.2807017543869" dy="0.35em" text-anchor="end">getgauge/gauge</text></g><g><rect x="499" y="717.7192982456149" height="10.877192982456108" width="3" fill="#000"></rect><text x="493" y="723.157894736843" dy="0.35em" text-anchor="end">hpcugent/easybuild-easyconfigs</text></g><g><rect x="499" y="214.91228070175492" height="32.631578947368325" width="3" fill="#000"></rect><text x="493" y="231.2280701754391" dy="0.35em" text-anchor="end">Microsoft/vscode</text></g><g><rect x="499" y="738.596491228071" height="10.877192982456108" width="3" fill="#000"></rect><text x="493" y="744.0350877192991" dy="0.35em" text-anchor="end">openzipkin/zipkin-java</text></g><g><rect x="499" y="362.80701754386047" height="10.877192982456336" width="3" fill="#000"></rect><text x="493" y="368.24561403508864" dy="0.35em" text-anchor="end">OPM/opm-simulators</text></g><g><rect x="499" y="759.4736842105272" height="10.877192982456108" width="3" fill="#000"></rect><text x="493" y="764.9122807017552" dy="0.35em" text-anchor="end">quintel/etmodel</text></g><g><rect x="499" y="780.3508771929833" height="10.877192982456108" width="3" fill="#000"></rect><text x="493" y="785.7894736842113" dy="0.35em" text-anchor="end">RobotLocomotion/drake</text></g><g><rect x="499" y="801.2280701754394" height="10.877192982456108" width="3" fill="#000"></rect><text x="493" y="806.6666666666674" dy="0.35em" text-anchor="end">ros-industrial/universal_robot</text></g><g><rect x="499" y="446.3157894736856" height="10.877192982456133" width="3" fill="#000"></rect><text x="493" y="451.75438596491364" dy="0.35em" text-anchor="end">ros/rosdistro</text></g><g><rect x="499" y="257.54385964912325" height="21.75438596491233" width="3" fill="#000"></rect><text x="493" y="268.4210526315794" dy="0.35em" text-anchor="end">ros2/rclcpp</text></g><g><rect x="499" y="822.1052631578955" height="10.877192982456108" width="3" fill="#000"></rect><text x="493" y="827.5438596491235" dy="0.35em" text-anchor="end">sanctuary-js/sanctuary</text></g><g><rect x="499" y="2.8421709430404007e-13" height="76.14035087719321" width="3" fill="#000"></rect><text x="493" y="38.07017543859689" dy="0.35em" text-anchor="end">SickRage/SickRage</text></g><g><rect x="499" y="842.9824561403516" height="10.877192982456108" width="3" fill="#000"></rect><text x="493" y="848.4210526315796" dy="0.35em" text-anchor="end">snarfed/bridgy</text></g><g><rect x="499" y="863.8596491228077" height="10.877192982456108" width="3" fill="#000"></rect><text x="493" y="869.2982456140357" dy="0.35em" text-anchor="end">spring-projects/spring-session</text></g><g><rect x="499" y="884.7368421052638" height="10.877192982456108" width="3" fill="#000"></rect><text x="493" y="890.1754385964919" dy="0.35em" text-anchor="end">ubcgif/em</text></g><g><rect x="499" y="383.6842105263168" height="10.877192982456336" width="3" fill="#000"></rect><text x="493" y="389.122807017545" dy="0.35em" text-anchor="end">uclouvain/osis</text></g><g><rect x="499" y="968.245614035088" height="10.877192982455881" width="3" fill="#000"></rect><text x="493" y="973.684210526316" dy="0.35em" text-anchor="end">vector-im/riot-web</text></g><g><rect x="499" y="905.6140350877199" height="10.877192982456108" width="3" fill="#000"></rect><text x="493" y="911.052631578948" dy="0.35em" text-anchor="end">zaproxy/zaproxy</text></g><g><rect x="499" y="926.491228070176" height="10.877192982456108" width="3" fill="#000"></rect><text x="493" y="931.9298245614041" dy="0.35em" text-anchor="end">Zarel/Pokemon-Showdown</text></g><g><rect x="748.5" y="923.2456140350878" height="10.877192982455881" width="3" fill="#000"></rect><text x="742.5" y="928.6842105263157" dy="0.35em" text-anchor="end">18F/federalist</text></g><g><rect x="748.5" y="881.4912280701758" height="10.877192982455995" width="3" fill="#000"></rect><text x="742.5" y="886.9298245614038" dy="0.35em" text-anchor="end">ckan/ckan</text></g><g><rect x="748.5" y="45.0000000000004" height="87.01754385964904" width="3" fill="#000"></rect><text x="742.5" y="88.50877192982492" dy="0.35em" text-anchor="end">conda-forge/conda-forge-build-setup-feedstock</text></g><g><rect x="748.5" y="568.3333333333342" height="10.877192982456108" width="3" fill="#000"></rect><text x="742.5" y="573.7719298245622" dy="0.35em" text-anchor="end">frappe/erpnext</text></g><g><rect x="748.5" y="526.5789473684217" height="10.877192982456222" width="3" fill="#000"></rect><text x="742.5" y="532.0175438596498" dy="0.35em" text-anchor="end">geneontology/noctua</text></g><g><rect x="748.5" y="589.2105263157903" height="10.877192982456108" width="3" fill="#000"></rect><text x="742.5" y="594.6491228070183" dy="0.35em" text-anchor="end">genome/civic-server</text></g><g><rect x="748.5" y="944.1228070175437" height="10.877192982455881" width="3" fill="#000"></rect><text x="742.5" y="949.5614035087716" dy="0.35em" text-anchor="end">getgauge/gauge</text></g><g><rect x="748.5" y="610.0877192982464" height="10.877192982456108" width="3" fill="#000"></rect><text x="742.5" y="615.5263157894744" dy="0.35em" text-anchor="end">hpcugent/easybuild-easyconfigs</text></g><g><rect x="748.5" y="228.15789473684242" height="65.26315789473688" width="3" fill="#000"></rect><text x="742.5" y="260.78947368421086" dy="0.35em" text-anchor="end">kubernetes/kubernetes</text></g><g><rect x="748.5" y="630.9649122807025" height="10.877192982456108" width="3" fill="#000"></rect><text x="742.5" y="636.4035087719305" dy="0.35em" text-anchor="end">kytos/napps-server</text></g><g><rect x="748.5" y="505.7017543859654" height="10.877192982456336" width="3" fill="#000"></rect><text x="742.5" y="511.14035087719355" dy="0.35em" text-anchor="end">LLK/scratch-blocks</text></g><g><rect x="748.5" y="442.19298245614095" height="21.754385964912217" width="3" fill="#000"></rect><text x="742.5" y="453.07017543859706" dy="0.35em" text-anchor="end">mezz/JustEnoughItems</text></g><g><rect x="748.5" y="142.01754385964944" height="76.14035087719299" width="3" fill="#000"></rect><text x="742.5" y="180.08771929824593" dy="0.35em" text-anchor="end">Microsoft/vscode</text></g><g><rect x="748.5" y="473.94736842105317" height="21.754385964912217" width="3" fill="#000"></rect><text x="742.5" y="484.8245614035093" dy="0.35em" text-anchor="end">nodejs/node</text></g><g><rect x="748.5" y="651.8421052631586" height="10.877192982456108" width="3" fill="#000"></rect><text x="742.5" y="657.2807017543867" dy="0.35em" text-anchor="end">OHDSI/Atlas</text></g><g><rect x="748.5" y="410.4385964912286" height="21.75438596491233" width="3" fill="#000"></rect><text x="742.5" y="421.3157894736848" dy="0.35em" text-anchor="end">openzipkin/zipkin-java</text></g><g><rect x="748.5" y="672.7192982456147" height="10.877192982456108" width="3" fill="#000"></rect><text x="742.5" y="678.1578947368428" dy="0.35em" text-anchor="end">OPM/opm-simulators</text></g><g><rect x="748.5" y="693.5964912280708" height="10.877192982456108" width="3" fill="#000"></rect><text x="742.5" y="699.0350877192989" dy="0.35em" text-anchor="end">PyCQA/pylint</text></g><g><rect x="748.5" y="714.4736842105269" height="10.877192982456108" width="3" fill="#000"></rect><text x="742.5" y="719.912280701755" dy="0.35em" text-anchor="end">pytest-dev/pytest</text></g><g><rect x="748.5" y="735.350877192983" height="10.877192982456108" width="3" fill="#000"></rect><text x="742.5" y="740.7894736842111" dy="0.35em" text-anchor="end">quintel/etmodel</text></g><g><rect x="748.5" y="303.4210526315793" height="65.26315789473674" width="3" fill="#000"></rect><text x="742.5" y="336.0526315789477" dy="0.35em" text-anchor="end">RobotLocomotion/drake</text></g><g><rect x="748.5" y="378.68421052631606" height="21.754385964912558" width="3" fill="#000"></rect><text x="742.5" y="389.56140350877234" dy="0.35em" text-anchor="end">ros2/rmw_fastrtps</text></g><g><rect x="748.5" y="902.3684210526318" height="10.877192982455995" width="3" fill="#000"></rect><text x="742.5" y="907.8070175438597" dy="0.35em" text-anchor="end">simpeg/simpeg</text></g><g><rect x="748.5" y="756.2280701754391" height="10.877192982456108" width="3" fill="#000"></rect><text x="742.5" y="761.6666666666672" dy="0.35em" text-anchor="end">snarfed/bridgy</text></g><g><rect x="748.5" y="547.456140350878" height="10.877192982456222" width="3" fill="#000"></rect><text x="742.5" y="552.8947368421061" dy="0.35em" text-anchor="end">streamlink/streamlink-twitch-gui</text></g><g><rect x="748.5" y="777.1052631578953" height="10.877192982456108" width="3" fill="#000"></rect><text x="742.5" y="782.5438596491233" dy="0.35em" text-anchor="end">uclouvain/osis</text></g><g><rect x="748.5" y="797.9824561403514" height="10.877192982456108" width="3" fill="#000"></rect><text x="742.5" y="803.4210526315794" dy="0.35em" text-anchor="end">Valloric/YouCompleteMe</text></g><g><rect x="748.5" y="818.8596491228075" height="10.877192982456108" width="3" fill="#000"></rect><text x="742.5" y="824.2982456140355" dy="0.35em" text-anchor="end">vector-im/riot-web</text></g><g><rect x="748.5" y="839.7368421052636" height="10.877192982456108" width="3" fill="#000"></rect><text x="742.5" y="845.1754385964916" dy="0.35em" text-anchor="end">zaproxy/zaproxy</text></g><g><rect x="748.5" y="860.6140350877197" height="10.877192982456108" width="3" fill="#000"></rect><text x="742.5" y="866.0526315789477" dy="0.35em" text-anchor="end">Zarel/Pokemon-Showdown</text></g><g><rect x="998" y="595.0877192982471" height="10.877192982456108" width="3" fill="#000"></rect><text x="992" y="600.5263157894751" dy="0.35em" text-anchor="end">18F/web-design-standards</text></g><g><rect x="998" y="60.000000000000455" height="130.52631578947393" width="3" fill="#000"></rect><text x="992" y="125.26315789473742" dy="0.35em" text-anchor="end">conda/conda</text></g><g><rect x="998" y="615.9649122807032" height="10.877192982456108" width="3" fill="#000"></rect><text x="992" y="621.4035087719312" dy="0.35em" text-anchor="end">dissolve6158</text></g><g><rect x="998" y="437.192982456141" height="21.754385964912444" width="3" fill="#000"></rect><text x="992" y="448.07017543859723" dy="0.35em" text-anchor="end">dissolve6161</text></g><g><rect x="998" y="636.8421052631593" height="10.877192982456108" width="3" fill="#000"></rect><text x="992" y="642.2807017543873" dy="0.35em" text-anchor="end">dissolve6164</text></g><g><rect x="998" y="553.3333333333346" height="10.877192982456222" width="3" fill="#000"></rect><text x="992" y="558.7719298245627" dy="0.35em" text-anchor="end">dissolve6167</text></g><g><rect x="998" y="657.7192982456154" height="10.877192982456108" width="3" fill="#000"></rect><text x="992" y="663.1578947368434" dy="0.35em" text-anchor="end">dissolve6170</text></g><g><rect x="998" y="678.5964912280715" height="10.877192982456108" width="3" fill="#000"></rect><text x="992" y="684.0350877192996" dy="0.35em" text-anchor="end">frappe/erpnext</text></g><g><rect x="998" y="699.4736842105276" height="10.877192982456108" width="3" fill="#000"></rect><text x="992" y="704.9122807017557" dy="0.35em" text-anchor="end">geneontology/noctua</text></g><g><rect x="998" y="720.3508771929837" height="10.877192982456108" width="3" fill="#000"></rect><text x="992" y="725.7894736842118" dy="0.35em" text-anchor="end">getgauge/gauge</text></g><g><rect x="998" y="286.66666666666737" height="65.26315789473688" width="3" fill="#000"></rect><text x="992" y="319.2982456140358" dy="0.35em" text-anchor="end">golang/dep</text></g><g><rect x="998" y="741.2280701754398" height="10.877192982456108" width="3" fill="#000"></rect><text x="992" y="746.6666666666679" dy="0.35em" text-anchor="end">LLK/scratch-gui</text></g><g><rect x="998" y="200.52631578947438" height="76.14035087719299" width="3" fill="#000"></rect><text x="992" y="238.59649122807087" dy="0.35em" text-anchor="end">Microsoft/vscode</text></g><g><rect x="998" y="762.1052631578959" height="10.877192982456108" width="3" fill="#000"></rect><text x="992" y="767.543859649124" dy="0.35em" text-anchor="end">OHDSI/Atlas</text></g><g><rect x="998" y="782.982456140352" height="10.877192982456108" width="3" fill="#000"></rect><text x="992" y="788.4210526315801" dy="0.35em" text-anchor="end">OPM/opm-simulators</text></g><g><rect x="998" y="908.2456140350887" height="10.877192982455881" width="3" fill="#000"></rect><text x="992" y="913.6842105263166" dy="0.35em" text-anchor="end">quintel/etmodel</text></g><g><rect x="998" y="574.2105263157908" height="10.877192982456222" width="3" fill="#000"></rect><text x="992" y="579.649122807019" dy="0.35em" text-anchor="end">simpeg/simpeg</text></g><g><rect x="998" y="866.4912280701765" height="10.877192982456052" width="3" fill="#000"></rect><text x="992" y="871.9298245614045" dy="0.35em" text-anchor="end">soimort/you-get</text></g><g><rect x="998" y="468.94736842105345" height="21.75438596491233" width="3" fill="#000"></rect><text x="992" y="479.8245614035096" dy="0.35em" text-anchor="end">SpongePowered/SpongeForge</text></g><g><rect x="998" y="500.7017543859658" height="21.75438596491233" width="3" fill="#000"></rect><text x="992" y="511.57894736842195" dy="0.35em" text-anchor="end">spring-projects/spring-boot</text></g><g><rect x="998" y="361.92982456140425" height="65.26315789473676" width="3" fill="#000"></rect><text x="992" y="394.5614035087726" dy="0.35em" text-anchor="end">tensorflow/tensorflow</text></g><g><rect x="998" y="803.8596491228082" height="10.877192982456108" width="3" fill="#000"></rect><text x="992" y="809.2982456140362" dy="0.35em" text-anchor="end">trilinos/Trilinos</text></g><g><rect x="998" y="929.1228070175446" height="10.877192982455199" width="3" fill="#000"></rect><text x="992" y="934.5614035087722" dy="0.35em" text-anchor="end">uclouvain/osis</text></g><g><rect x="998" y="887.3684210526326" height="10.877192982456052" width="3" fill="#000"></rect><text x="992" y="892.8070175438606" dy="0.35em" text-anchor="end">Valloric/YouCompleteMe</text></g><g><rect x="998" y="824.7368421052643" height="10.877192982456108" width="3" fill="#000"></rect><text x="992" y="830.1754385964923" dy="0.35em" text-anchor="end">vector-im/riot-web</text></g><g><rect x="998" y="845.6140350877204" height="10.877192982456108" width="3" fill="#000"></rect><text x="992" y="851.0526315789484" dy="0.35em" text-anchor="end">zaproxy/zaproxy</text></g><g><rect x="998" y="532.4561403508781" height="10.877192982456563" width="3" fill="#000"></rect><text x="992" y="537.8947368421063" dy="0.35em" text-anchor="end">Zarel/Pokemon-Showdown-Client</text></g><g><rect x="1247.5" y="237.2807017543864" height="87.01754385964922" width="3" fill="#000"></rect><text x="1241.5" y="280.78947368421103" dy="0.35em" text-anchor="end">angular/angular-cli</text></g><g><rect x="1247.5" y="580.0877192982459" height="10.877192982456108" width="3" fill="#000"></rect><text x="1241.5" y="585.526315789474" dy="0.35em" text-anchor="end">AppScale/appscale-tools</text></g><g><rect x="1247.5" y="75.00000000000045" height="152.28070175438594" width="3" fill="#000"></rect><text x="1241.5" y="151.14035087719344" dy="0.35em" text-anchor="end">conda/conda</text></g><g><rect x="1247.5" y="495.7017543859655" height="21.754385964912217" width="3" fill="#000"></rect><text x="1241.5" y="506.5789473684216" dy="0.35em" text-anchor="end">CyclopsMC/IntegratedDynamics</text></g><g><rect x="1247.5" y="600.964912280702" height="10.877192982456108" width="3" fill="#000"></rect><text x="1241.5" y="606.4035087719301" dy="0.35em" text-anchor="end">datatogether/sql_datastore</text></g><g><rect x="1247.5" y="914.1228070175436" height="10.877192982455938" width="3" fill="#000"></rect><text x="1241.5" y="919.5614035087715" dy="0.35em" text-anchor="end">dissolve6159</text></g><g><rect x="1247.5" y="527.4561403508777" height="21.75438596491199" width="3" fill="#000"></rect><text x="1241.5" y="538.3333333333337" dy="0.35em" text-anchor="end">dissolve6162</text></g><g><rect x="1247.5" y="621.8421052631581" height="10.877192982456108" width="3" fill="#000"></rect><text x="1241.5" y="627.2807017543862" dy="0.35em" text-anchor="end">dissolve6165</text></g><g><rect x="1247.5" y="893.2456140350876" height="10.877192982455995" width="3" fill="#000"></rect><text x="1241.5" y="898.6842105263156" dy="0.35em" text-anchor="end">dissolve6168</text></g><g><rect x="1247.5" y="642.7192982456143" height="10.877192982456108" width="3" fill="#000"></rect><text x="1241.5" y="648.1578947368423" dy="0.35em" text-anchor="end">dissolve6171</text></g><g><rect x="1247.5" y="663.5964912280704" height="10.877192982456108" width="3" fill="#000"></rect><text x="1241.5" y="669.0350877192984" dy="0.35em" text-anchor="end">dissolve8541</text></g><g><rect x="1247.5" y="559.2105263157897" height="10.877192982456279" width="3" fill="#000"></rect><text x="1241.5" y="564.6491228070179" dy="0.35em" text-anchor="end">ericsomdahl/python-bittrex</text></g><g><rect x="1247.5" y="420.4385964912286" height="65.26315789473688" width="3" fill="#000"></rect><text x="1241.5" y="453.07017543859706" dy="0.35em" text-anchor="end">golang/dep</text></g><g><rect x="1247.5" y="684.4736842105265" height="10.877192982456108" width="3" fill="#000"></rect><text x="1241.5" y="689.9122807017545" dy="0.35em" text-anchor="end">kiegroup/jbpm-wb</text></g><g><rect x="1247.5" y="705.3508771929826" height="10.877192982456108" width="3" fill="#000"></rect><text x="1241.5" y="710.7894736842106" dy="0.35em" text-anchor="end">mapbox/mapbox-gl-native</text></g><g><rect x="1247.5" y="334.29824561403564" height="76.14035087719299" width="3" fill="#000"></rect><text x="1241.5" y="372.36842105263213" dy="0.35em" text-anchor="end">nodejs/node</text></g><g><rect x="1247.5" y="726.2280701754387" height="10.877192982456108" width="3" fill="#000"></rect><text x="1241.5" y="731.6666666666667" dy="0.35em" text-anchor="end">oknosoft/windowbuilder</text></g><g><rect x="1247.5" y="747.1052631578948" height="10.877192982456108" width="3" fill="#000"></rect><text x="1241.5" y="752.5438596491229" dy="0.35em" text-anchor="end">PowerShell/SqlServerDsc</text></g><g><rect x="1247.5" y="767.9824561403509" height="10.877192982456108" width="3" fill="#000"></rect><text x="1241.5" y="773.421052631579" dy="0.35em" text-anchor="end">PX4/Firmware</text></g><g><rect x="1247.5" y="788.859649122807" height="10.877192982456108" width="3" fill="#000"></rect><text x="1241.5" y="794.2982456140351" dy="0.35em" text-anchor="end">roboticslab-uc3m/kinematics-dynamics</text></g><g><rect x="1247.5" y="809.7368421052631" height="10.877192982456108" width="3" fill="#000"></rect><text x="1241.5" y="815.1754385964912" dy="0.35em" text-anchor="end">strongloop/loopback-next</text></g><g><rect x="1247.5" y="830.6140350877192" height="10.877192982456108" width="3" fill="#000"></rect><text x="1241.5" y="836.0526315789473" dy="0.35em" text-anchor="end">suttacentral/next-sc</text></g><g><rect x="1247.5" y="851.4912280701753" height="10.877192982456108" width="3" fill="#000"></rect><text x="1241.5" y="856.9298245614034" dy="0.35em" text-anchor="end">TissueMAPS/TissueMAPS</text></g><g><rect x="1247.5" y="872.3684210526314" height="10.877192982456108" width="3" fill="#000"></rect><text x="1241.5" y="877.8070175438595" dy="0.35em" text-anchor="end">zaproxy/zaproxy</text></g><g><rect x="1497" y="227.280701754386" height="76.14035087719299" width="3" fill="#000"></rect><text x="1491" y="265.35087719298247" dy="0.35em" text-anchor="end">angular/angular-cli</text></g><g><rect x="1497" y="65.00000000000011" height="152.2807017543859" width="3" fill="#000"></rect><text x="1491" y="141.14035087719304" dy="0.35em" text-anchor="end">conda/conda</text></g><g><rect x="1497" y="506.57894736842115" height="10.877192982456222" width="3" fill="#000"></rect><text x="1491" y="512.0175438596493" dy="0.35em" text-anchor="end">dissolve11285</text></g><g><rect x="1497" y="590.087719298246" height="10.877192982456165" width="3" fill="#000"></rect><text x="1491" y="595.5263157894741" dy="0.35em" text-anchor="end">dissolve11286</text></g><g><rect x="1497" y="527.4561403508774" height="10.877192982456222" width="3" fill="#000"></rect><text x="1491" y="532.8947368421054" dy="0.35em" text-anchor="end">dissolve11290</text></g><g><rect x="1497" y="610.9649122807023" height="10.877192982456108" width="3" fill="#000"></rect><text x="1491" y="616.4035087719303" dy="0.35em" text-anchor="end">dissolve11291</text></g><g><rect x="1497" y="548.3333333333336" height="10.877192982456222" width="3" fill="#000"></rect><text x="1491" y="553.7719298245618" dy="0.35em" text-anchor="end">dissolve11296</text></g><g><rect x="1497" y="631.8421052631584" height="10.877192982456108" width="3" fill="#000"></rect><text x="1491" y="637.2807017543864" dy="0.35em" text-anchor="end">dissolve11297</text></g><g><rect x="1497" y="652.7192982456145" height="10.877192982456108" width="3" fill="#000"></rect><text x="1491" y="658.1578947368425" dy="0.35em" text-anchor="end">dissolve11299</text></g><g><rect x="1497" y="673.5964912280706" height="10.877192982456108" width="3" fill="#000"></rect><text x="1491" y="679.0350877192986" dy="0.35em" text-anchor="end">dissolve6160</text></g><g><rect x="1497" y="474.8245614035088" height="21.75438596491233" width="3" fill="#000"></rect><text x="1491" y="485.701754385965" dy="0.35em" text-anchor="end">dissolve6163</text></g><g><rect x="1497" y="569.2105263157898" height="10.877192982456222" width="3" fill="#000"></rect><text x="1491" y="574.6491228070179" dy="0.35em" text-anchor="end">dissolve6166</text></g><g><rect x="1497" y="694.4736842105267" height="10.877192982456108" width="3" fill="#000"></rect><text x="1491" y="699.9122807017548" dy="0.35em" text-anchor="end">dissolve6169</text></g><g><rect x="1497" y="715.3508771929828" height="10.877192982456108" width="3" fill="#000"></rect><text x="1491" y="720.7894736842109" dy="0.35em" text-anchor="end">dissolve6172</text></g><g><rect x="1497" y="736.2280701754389" height="10.877192982456108" width="3" fill="#000"></rect><text x="1491" y="741.666666666667" dy="0.35em" text-anchor="end">dissolve8542</text></g><g><rect x="1497" y="757.105263157895" height="10.877192982456108" width="3" fill="#000"></rect><text x="1491" y="762.5438596491231" dy="0.35em" text-anchor="end">frappe/erpnext</text></g><g><rect x="1497" y="399.56140350877195" height="65.26315789473688" width="3" fill="#000"></rect><text x="1491" y="432.1929824561404" dy="0.35em" text-anchor="end">hashicorp/terraform</text></g><g><rect x="1497" y="777.9824561403511" height="10.877192982456108" width="3" fill="#000"></rect><text x="1491" y="783.4210526315792" dy="0.35em" text-anchor="end">LLK/scratch-gui</text></g><g><rect x="1497" y="798.8596491228072" height="10.877192982456108" width="3" fill="#000"></rect><text x="1491" y="804.2982456140353" dy="0.35em" text-anchor="end">Microsoft/vscode</text></g><g><rect x="1497" y="313.42105263157896" height="76.14035087719299" width="3" fill="#000"></rect><text x="1491" y="351.49122807017545" dy="0.35em" text-anchor="end">nodejs/node</text></g><g><rect x="1497" y="819.7368421052633" height="10.877192982456108" width="3" fill="#000"></rect><text x="1491" y="825.1754385964914" dy="0.35em" text-anchor="end">nodejs/node4</text></g><g><rect x="1497" y="840.6140350877195" height="10.877192982456108" width="3" fill="#000"></rect><text x="1491" y="846.0526315789475" dy="0.35em" text-anchor="end">OHDSI/WebAPI</text></g><g><rect x="1497" y="861.4912280701756" height="10.877192982456108" width="3" fill="#000"></rect><text x="1491" y="866.9298245614036" dy="0.35em" text-anchor="end">OPM/opm-simulators</text></g><g><rect x="1497" y="882.3684210526317" height="10.877192982456108" width="3" fill="#000"></rect><text x="1491" y="887.8070175438597" dy="0.35em" text-anchor="end">simpeg/simpeg</text></g><g><rect x="1497" y="903.2456140350878" height="10.877192982456108" width="3" fill="#000"></rect><text x="1491" y="908.6842105263158" dy="0.35em" text-anchor="end">uswds/uswds</text></g><g><rect x="1497" y="924.1228070175439" height="10.877192982456108" width="3" fill="#000"></rect><text x="1491" y="929.561403508772" dy="0.35em" text-anchor="end">vector-im/riot-web</text></g></g></g></svg>